<?xml version="1.0" encoding="utf-8"?>
<!-- Generator: Adobe Illustrator 26.0.1, SVG Export Plug-In . SVG Version: 6.00 Build 0)  -->
<svg version="1.1" id="Layer_1" xmlns="http://www.w3.org/2000/svg" xmlns:xlink="http://www.w3.org/1999/xlink" x="0px" y="0px"
	 viewBox="0 0 792 612" style="enable-background:new 0 0 792 612;" xml:space="preserve">
<style type="text/css">
	.st0{fill:#FFFFFF;}
	.st1{fill:#808080;}
	.st2{fill:#FFFF00;}
</style>
<g>
	<g>
		<polygon points="323.65,246.55 379.9,302.02 393.67,286.45 		"/>
		<polygon class="st0" points="323.65,246.55 365.42,318.66 379.9,302.02 		"/>
	</g>
	<g>
		<polygon points="432.71,358.79 376.46,303.32 362.7,318.89 		"/>
		<polygon class="st0" points="432.71,358.79 390.94,286.67 376.46,303.32 		"/>
	</g>
	<g>
		<polygon points="324.99,360.06 377.44,300.98 360.95,288.5 		"/>
		<polygon class="st0" points="324.99,360.06 394.82,314.58 377.44,300.98 		"/>
	</g>
	<g>
		<polygon points="431.37,245.28 378.92,304.36 395.19,317.28 		"/>
		<polygon class="st0" points="431.37,245.28 361.54,290.76 378.92,304.36 		"/>
	</g>
	<g>
		<polygon class="st0" points="227.14,302.07 378.95,302.07 378.95,320.29 		"/>
		<polygon points="227.14,302.07 378.94,303.16 378.95,286.67 		"/>
		<polygon class="st0" points="523.82,302.94 378.95,302.07 378.95,286.67 		"/>
		<polygon points="523.82,302.94 378.95,302.07 378.95,320.29 		"/>
	</g>
	<g>
		<polygon class="st0" points="377.98,446.65 377.98,302.94 393.89,302.94 		"/>
		<polygon points="377.98,446.65 378.94,303.16 363.88,302.94 		"/>
		<polygon class="st0" points="378.66,155.23 378.94,303.16 363.94,303.16 		"/>
		<polygon points="374.76,155.23 378.94,302.94 393.89,302.94 		"/>
	</g>
	<path d="M59.93,538.15v9.21c0,1.05,0.06,2.6,0.19,4.63c0.13,2.03,0.19,3.29,0.19,3.76v0.71c0,0.4-0.15,0.72-0.46,0.95
		c-0.31,0.24-0.66,0.35-1.06,0.35c-0.76,0-1.14-0.34-1.14-1.04l-0.16-2.4c0-1.09,0.13-3.42,0.38-6.98c0.14-2.03,0.22-3.45,0.22-4.25
		v-27.25c6.32,3.71,12.45,7.21,18.39,10.47c5.94,3.27,12.29,6.63,19.04,10.08v-9.15c0-0.8-0.07-2.11-0.22-3.92
		c-0.15-1.82-0.22-3.16-0.22-4.03l0.11-1.2c0-0.91,0.45-1.36,1.36-1.36h0.38c0.33,0.04,0.55,0.22,0.68,0.54
		c0.13,0.33,0.19,0.67,0.19,1.03v0.27c0,1.45-0.07,3.61-0.22,6.48c-0.15,2.87-0.22,5.01-0.22,6.43v27.18
		c-6.32-3.7-12.45-7.18-18.39-10.45S66.68,541.6,59.93,538.15z M100.91,537.28c0-5.92,2.12-10.97,6.37-15.15
		c4.25-4.18,9.26-6.27,15.04-6.27c1.82,0,3.67,0.24,5.56,0.71c4.65,1.24,8.45,3.79,11.41,7.65c2.96,3.87,4.44,8.22,4.44,13.05
		c0,5.85-2.09,10.86-6.27,15.04c-4.18,4.18-9.19,6.27-15.04,6.27c-5.96,0-11.03-2.08-15.23-6.24
		C103.01,548.18,100.91,543.16,100.91,537.28z M120.36,556.73l0.82,0.11c2.11,0,4.07-0.21,5.88-0.63c1.82-0.42,3.56-1.13,5.23-2.15
		c2.98-1.74,5.28-4.15,6.92-7.22c1.63-3.07,2.45-6.31,2.45-9.72c0-2.36-0.41-4.68-1.23-6.95c-0.82-2.27-2.04-4.29-3.68-6.07
		c-2.03-2.18-4.3-3.76-6.78-4.74c-2.49-0.98-5.24-1.47-8.25-1.47h-1.36V556.73z M148.25,557.44l0.05-6.54v-27.24l-0.05-6.54h20.49
		c3.56,0,6.65,0.42,9.26,1.25c3.23,1.02,5.81,2.69,7.74,5.01c1.16,1.42,2.06,3.05,2.7,4.9c0.64,1.85,0.95,3.76,0.95,5.72v1.14
		c0,4.65-1.62,8.3-4.85,10.95c-2.8,2.29-6.7,3.8-11.71,4.52c2.22,1.24,4.46,2.3,6.73,3.19c2.27,0.89,4.6,1.57,7,2.04
		c0.51,0.07,0.76,0.4,0.76,0.98c-0.11,0.36-0.2,0.6-0.27,0.71c-0.29,0.33-0.76,0.49-1.42,0.49c-0.33,0-0.78-0.08-1.36-0.25
		c-0.58-0.16-0.94-0.25-1.09-0.25c-2.91-0.91-5.88-2.25-8.93-4.03c-2.47-1.42-5.18-3.27-8.12-5.56v9.48H148.25z M180.88,521.64
		c-2.03-1.2-4.41-1.98-7.14-2.34c-1.6-0.22-4.14-0.33-7.63-0.33v26.53c1.42,1.27,2.98,2.45,4.69,3.54c2.94-0.29,5.28-0.74,7.03-1.36
		c1.34-0.47,2.62-1.14,3.81-2.02c1.82-1.23,3.21-2.9,4.2-4.98c0.98-2.09,1.47-4.29,1.47-6.62c0-2.58-0.54-4.98-1.63-7.19
		C184.59,524.66,182.99,522.91,180.88,521.64z M201.91,557.49l0.16-6.49v-25.48l-0.16-6.49c-1.71,0.15-3.39,0.26-5.04,0.35
		c-1.65,0.09-2.95,0.14-3.9,0.14c-0.54,0-0.99-0.03-1.33-0.08c-0.35-0.05-0.61-0.12-0.79-0.19c-0.11-0.11-0.19-0.24-0.25-0.38
		c-0.05-0.14-0.12-0.29-0.19-0.44c0-0.33,0.19-0.62,0.57-0.87c0.38-0.25,0.79-0.38,1.23-0.38h37.59c0.44,0,0.87,0.2,1.31,0.6
		c0.29,0.29,0.44,0.54,0.44,0.76c-0.04,0.15-0.07,0.27-0.11,0.38c-0.04,0.11-0.11,0.22-0.22,0.33c-0.15,0.04-0.27,0.05-0.38,0.05
		c-0.76,0.15-1.38,0.22-1.85,0.22c-1.38,0-2.91-0.05-4.6-0.16c-1.69-0.11-3.13-0.22-4.33-0.33l-0.16,4.64l0.05,1.85V551l-0.05,1.96
		l0.16,4.53H201.91z M235.79,557.44l0.05-6.54v-27.24l-0.05-6.54h18.03l-0.16,6.54v7.25h19.99l-0.22-12.65v-0.87
		c0.04-0.15,0.16-0.27,0.37-0.38c0.21-0.11,0.39-0.16,0.54-0.16c0.3,0,0.61,0.1,0.91,0.3c0.3,0.2,0.49,0.45,0.57,0.74
		c0,0.62-0.02,1.13-0.07,1.53c-0.17,1.6-0.26,2.45-0.26,2.56v3.27v6.49v8.66v1.85c0,1.56,0.05,3.92,0.16,7.08
		c0.11,3.16,0.16,5.54,0.16,7.14c0,0.76-0.43,1.14-1.28,1.14c-0.32,0-0.59-0.09-0.8-0.27c-0.21-0.18-0.32-0.47-0.32-0.87l0.27-23.54
		h-20.05v17.98l0.16,6.54H235.79z M317.36,556.46c0,0.69-0.51,1.04-1.53,1.04H280.2l0.05-6.55v-27.28l-0.05-6.55h33.23
		c0.76,0,1.18,0.16,1.25,0.48l0.05,0.69c0,0.35-0.18,0.6-0.54,0.74c-0.36,0.14-0.8,0.21-1.31,0.21h-1.2c-1.71,0-3.09-0.02-4.14-0.05
		c-4.25-0.14-6.59-0.22-7.03-0.22h-2.45v9.26l2.29,0.11c2.18,0,3.94-0.02,5.28-0.05c5.45-0.14,8.43-0.22,8.93-0.22
		c0.47,0,0.84,0.13,1.12,0.38c0.27,0.25,0.41,0.54,0.41,0.87c0,0.65-0.45,0.98-1.36,0.98c-1.93,0-5.09-0.04-9.51-0.11
		c-4.41-0.07-6.8-0.11-7.16-0.11v25.55l8.93,0.16c2.91,0,5.9-0.14,8.99-0.44C316.91,555.37,317.36,555.73,317.36,556.46
		L317.36,556.46z M321.93,557.44l0.05-6.54v-27.24l-0.05-6.54h20.49c3.56,0,6.65,0.42,9.26,1.25c3.23,1.02,5.81,2.69,7.74,5.01
		c1.16,1.42,2.06,3.05,2.7,4.9c0.64,1.85,0.95,3.76,0.95,5.72v1.14c0,4.65-1.62,8.3-4.85,10.95c-2.8,2.29-6.7,3.8-11.71,4.52
		c2.21,1.24,4.46,2.3,6.73,3.19c2.27,0.89,4.6,1.57,7,2.04c0.51,0.07,0.76,0.4,0.76,0.98c-0.11,0.36-0.2,0.6-0.27,0.71
		c-0.29,0.33-0.76,0.49-1.42,0.49c-0.33,0-0.78-0.08-1.36-0.25c-0.58-0.16-0.94-0.25-1.09-0.25c-2.91-0.91-5.88-2.25-8.93-4.03
		c-2.47-1.42-5.18-3.27-8.12-5.56v9.48H321.93z M354.57,521.64c-2.03-1.2-4.41-1.98-7.14-2.34c-1.6-0.22-4.14-0.33-7.63-0.33v26.53
		c1.42,1.27,2.98,2.45,4.69,3.54c2.94-0.29,5.28-0.74,7.03-1.36c1.34-0.47,2.62-1.14,3.81-2.02c1.82-1.23,3.21-2.9,4.2-4.98
		c0.98-2.09,1.47-4.29,1.47-6.62c0-2.58-0.54-4.98-1.63-7.19C358.27,524.66,356.67,522.91,354.57,521.64z M369.65,538.15v9.21
		c0,1.05,0.06,2.6,0.19,4.63c0.13,2.03,0.19,3.29,0.19,3.76v0.71c0,0.4-0.15,0.72-0.46,0.95c-0.31,0.24-0.66,0.35-1.06,0.35
		c-0.76,0-1.14-0.34-1.14-1.04l-0.16-2.4c0-1.09,0.13-3.42,0.38-6.98c0.14-2.03,0.22-3.45,0.22-4.25v-27.25
		c6.32,3.71,12.45,7.21,18.39,10.47c5.94,3.27,12.29,6.63,19.04,10.08v-9.15c0-0.8-0.07-2.11-0.22-3.92
		c-0.15-1.82-0.22-3.16-0.22-4.03l0.11-1.2c0-0.91,0.45-1.36,1.36-1.36h0.38c0.33,0.04,0.55,0.22,0.68,0.54
		c0.13,0.33,0.19,0.67,0.19,1.03v0.27c0,1.45-0.07,3.61-0.22,6.48c-0.15,2.87-0.22,5.01-0.22,6.43v27.18
		c-6.32-3.7-12.45-7.18-18.39-10.45C382.76,544.96,376.41,541.6,369.65,538.15z M433.62,557.44l0.05-6.54v-27.24l-0.05-6.54h18.03
		l-0.16,6.54v7.25h19.99l-0.22-12.65v-0.87c0.04-0.15,0.16-0.27,0.37-0.38c0.21-0.11,0.39-0.16,0.54-0.16c0.3,0,0.61,0.1,0.91,0.3
		c0.3,0.2,0.49,0.45,0.57,0.74c0,0.62-0.02,1.13-0.07,1.53c-0.17,1.6-0.26,2.45-0.26,2.56v3.27v6.49v8.66v1.85
		c0,1.56,0.05,3.92,0.16,7.08c0.11,3.16,0.16,5.54,0.16,7.14c0,0.76-0.43,1.14-1.28,1.14c-0.32,0-0.59-0.09-0.8-0.27
		c-0.21-0.18-0.32-0.47-0.32-0.87l0.27-23.54h-20.05v17.98l0.16,6.54H433.62z M478.19,557.49l0.11-6.55v-27.28l-0.11-6.55h18.03
		l-0.16,6.55v27.28l0.16,6.55H478.19z M501.01,557.44l0.05-6.54v-27.24l-0.05-6.54h20.49c3.56,0,6.65,0.42,9.26,1.25
		c3.23,1.02,5.81,2.69,7.74,5.01c1.16,1.42,2.06,3.05,2.7,4.9c0.64,1.85,0.95,3.76,0.95,5.72v1.14c0,4.65-1.62,8.3-4.85,10.95
		c-2.8,2.29-6.7,3.8-11.71,4.52c2.22,1.24,4.46,2.3,6.73,3.19c2.27,0.89,4.6,1.57,7,2.04c0.51,0.07,0.76,0.4,0.76,0.98
		c-0.11,0.36-0.2,0.6-0.27,0.71c-0.29,0.33-0.76,0.49-1.42,0.49c-0.33,0-0.78-0.08-1.36-0.25c-0.58-0.16-0.94-0.25-1.09-0.25
		c-2.91-0.91-5.88-2.25-8.94-4.03c-2.47-1.42-5.18-3.27-8.12-5.56v9.48H501.01z M533.64,521.64c-2.03-1.2-4.41-1.98-7.14-2.34
		c-1.6-0.22-4.14-0.33-7.63-0.33v26.53c1.42,1.27,2.98,2.45,4.69,3.54c2.94-0.29,5.28-0.74,7.03-1.36c1.34-0.47,2.62-1.14,3.81-2.02
		c1.82-1.23,3.21-2.9,4.2-4.98c0.98-2.09,1.47-4.29,1.47-6.62c0-2.58-0.54-4.98-1.63-7.19
		C537.35,524.66,535.75,522.91,533.64,521.64z M583.99,556.46c0,0.69-0.51,1.04-1.53,1.04h-35.63l0.05-6.55v-27.28l-0.05-6.55h33.23
		c0.76,0,1.18,0.16,1.25,0.48l0.05,0.69c0,0.35-0.18,0.6-0.54,0.74c-0.36,0.14-0.8,0.21-1.31,0.21h-1.2c-1.71,0-3.09-0.02-4.14-0.05
		c-4.25-0.14-6.59-0.22-7.03-0.22h-2.45v9.26l2.29,0.11c2.18,0,3.94-0.02,5.28-0.05c5.45-0.14,8.43-0.22,8.93-0.22
		c0.47,0,0.84,0.13,1.12,0.38c0.27,0.25,0.41,0.54,0.41,0.87c0,0.65-0.45,0.98-1.36,0.98c-1.93,0-5.09-0.04-9.51-0.11
		c-4.41-0.07-6.8-0.11-7.16-0.11v25.55l8.93,0.16c2.91,0,5.9-0.14,8.99-0.44C583.54,555.37,583.99,555.73,583.99,556.46
		L583.99,556.46z M610.03,557.49l0.05-6.55v-27.28l-0.05-6.55h18.03l-0.16,6.57v25.55l0.16,6.51h4.41c1.38,0,3.03-0.05,4.96-0.16
		c4.47-0.25,7.26-0.38,8.39-0.38c0.47,0,0.83,0.1,1.06,0.3c0.24,0.2,0.35,0.45,0.35,0.74c0,0.29-0.15,0.56-0.44,0.82
		c-0.29,0.25-0.67,0.4-1.14,0.44H610.03z M659.6,557.49l0.16-6.49v-25.48l-0.16-6.49c-1.71,0.15-3.39,0.26-5.04,0.35
		c-1.65,0.09-2.95,0.14-3.9,0.14c-0.54,0-0.99-0.03-1.33-0.08c-0.35-0.05-0.61-0.12-0.79-0.19c-0.11-0.11-0.19-0.24-0.25-0.38
		c-0.05-0.14-0.12-0.29-0.19-0.44c0-0.33,0.19-0.62,0.57-0.87c0.38-0.25,0.79-0.38,1.23-0.38h37.59c0.44,0,0.87,0.2,1.31,0.6
		c0.29,0.29,0.44,0.54,0.44,0.76c-0.04,0.15-0.07,0.27-0.11,0.38c-0.04,0.11-0.11,0.22-0.22,0.33c-0.15,0.04-0.27,0.05-0.38,0.05
		c-0.76,0.15-1.38,0.22-1.85,0.22c-1.38,0-2.91-0.05-4.6-0.16c-1.69-0.11-3.13-0.22-4.33-0.33l-0.16,4.64l0.05,1.85V551l-0.05,1.96
		l0.16,4.53H659.6z M693.93,550.94v-27.28l-0.11-6.55h17.87c4.94,0,8.57,0.42,10.9,1.25c2.03,0.73,3.94,1.93,5.72,3.6
		c2.03,1.85,3.58,4.13,4.63,6.82c1.05,2.69,1.58,5.53,1.58,8.51c0,2.98-0.52,5.81-1.55,8.48c-1.04,2.67-2.59,4.96-4.66,6.85
		c-2.18,2.04-4.76,3.4-7.74,4.09c-2.18,0.51-5.14,0.76-8.88,0.76h-17.87L693.93,550.94z M711.69,518.97v36.61
		c3.38,0,5.81-0.13,7.3-0.38c2.51-0.44,4.74-1.34,6.7-2.72c2.22-1.63,3.93-3.83,5.15-6.59c1.22-2.76,1.83-5.63,1.83-8.61
		c0-3.05-0.6-5.92-1.8-8.61c-1.2-2.69-2.92-4.88-5.18-6.59c-1.42-1.02-3.11-1.79-5.09-2.32
		C718.62,519.24,715.65,518.97,711.69,518.97z"/>
	<polygon class="st1" points="430.35,185.4 444.88,200.36 444.88,318.34 430.35,302.07 430.35,258.7 386.54,258.7 386.54,244.17 
		430.78,244.17 	"/>
	<path class="st2" d="M549.55,344.43l5.49-37.59l-14.76-4.4c-0.06-14.26-1.98-28.08-5.51-41.25l13.47-6.98l-14.89-35.57l-14.63,3.81
		c-7.05-12.2-15.64-23.39-25.52-33.31l7.48-13.15l-30.51-24l-11.16,10.92c-11.98-6.87-24.92-12.24-38.57-15.88v-16l-38.02-4.63
		l-3.21,15.19c-0.16,0-0.33-0.01-0.49-0.01c-14.34,0-28.24,1.88-41.48,5.38l-12.24-11.46l-28.02,9.54v18.72
		c-11.94,7.02-22.9,15.51-32.62,25.25l-13.79-8.84l-23.42,30.8l11.69,11.27l0.01-0.01c-6.95,11.98-12.39,24.94-16.09,38.62h-15.55
		l-4.77,39.66l14.72,2.64c0,14.36,1.88,28.27,5.39,41.52l-13.17,9l16.05,33.83l13.6-3.13l0-0.01c7.03,12.06,15.56,23.13,25.36,32.94
		l-7.3,13.13l29.49,22.99l10.81-10.65c12.24,7.14,25.5,12.72,39.51,16.47v15l37.89,4.99l3.58-14.51c0.12,0,0.25,0,0.37,0
		c14.42,0,28.39-1.9,41.69-5.44l7.66,13c0,0,23.1-7.48,35.35-14.64l-4.01-14.48c12.27-7.08,23.52-15.73,33.48-25.68l13.01,7.16
		l23.71-29.2l-10.77-11.77c6.92-12.02,12.33-25.02,15.99-38.73L549.55,344.43z M378.72,449.83c-81,0-146.66-65.66-146.66-146.66
		s65.66-146.66,146.66-146.66s146.66,65.66,146.66,146.66S459.72,449.83,378.72,449.83z"/>
	<polygon class="st0" points="444.88,53.32 429.48,68.29 429.48,122.51 386.11,67.64 371.14,67.64 371.14,302.83 386.54,302.83 
		386.54,91.93 425.79,140.94 444.88,140.94 	"/>
	<g>
		<path d="M445.88,53.32v87.61h-19.08l-39.25-49.01v210.9h-15.4V67.64h14.96l43.37,54.87V68.29L445.88,53.32 M448.88,46.23
			l-5.09,4.95l-15.4,14.96l-0.91,0.88v1.27v45.58l-38.02-48.1l-0.9-1.14h-1.45h-14.96h-3v3v235.19v3h3h15.4h3v-3V100.47l33.91,42.34
			l0.9,1.12h1.44h19.08h3v-3V53.32V46.23L448.88,46.23z"/>
	</g>
</g>
</svg>
